# 3ds Max Wavefront OBJ Exporter v0.97b - (c)2007 guruware
# 创建的文件:14.09.2023 15:48:52

mtllib Btm_R.mtl

#
# object Btm_R
#

v  -0.6776 -0.0000 -10.0000
v  -0.6776 -0.0000 -0.0000
v  -0.8275 0.0000 -0.0000
v  -0.8275 0.0000 -10.0000
v  -0.8275 0.0120 -0.0000
v  -0.8275 0.0120 -10.0000
v  -0.7763 0.0226 -0.0000
v  -0.7763 0.0226 -10.0000
v  -0.7288 0.0226 -0.0000
v  -0.7288 0.0226 -10.0000
v  -0.6776 0.0120 -0.0000
v  -0.6776 0.0120 -10.0000
# 12 vertices

vn 0.5774 -0.5774 -0.5774
vn 0.5774 -0.5774 0.5774
vn -0.5774 -0.5774 0.5774
vn -0.5774 -0.5774 -0.5774
vn -0.6267 0.5104 0.5889
vn -0.6267 0.5104 -0.5889
vn -0.0740 0.7248 0.6850
vn -0.0740 0.7248 -0.6850
vn 0.0740 0.7248 0.6850
vn 0.0740 0.7248 -0.6850
vn 0.6267 0.5104 0.5889
vn 0.6267 0.5104 -0.5889
# 12 vertex normals

o Btm_R
g Btm_R
usemtl wire_087225087
s 2049
f 1//1 2//2 3//3 4//4 
s 4100
f 4//4 3//3 5//5 6//6 
s 8194
f 6//6 5//5 7//7 8//8 
s 4100
f 8//8 7//7 9//9 10//10 
s 8194
f 10//10 9//9 11//11 12//12 
s 4100
f 12//12 11//11 2//2 1//1 
s 2147483648
f 1//1 4//4 6//6 8//8 
f 1//1 8//8 10//10 12//12 
f 2//2 7//7 5//5 3//3 
f 2//2 11//11 9//9 7//7 
# 10 polygons

